<?xml version="1.0" encoding="utf-8"?>
<!-- Generator: Adobe Illustrator 16.0.3, SVG Export Plug-In . SVG Version: 6.00 Build 0)  -->
<!DOCTYPE svg PUBLIC "-//W3C//DTD SVG 1.1//EN" "http://www.w3.org/Graphics/SVG/1.1/DTD/svg11.dtd">
<svg version="1.1" id="Capa_1" xmlns="http://www.w3.org/2000/svg" xmlns:xlink="http://www.w3.org/1999/xlink" x="0px" y="0px"
	 width="308.984px" height="306.734px" viewBox="0 0 308.984 306.734" enable-background="new 0 0 308.984 306.734"
	 xml:space="preserve">
<g>
	<g transform="translate(6838.521 6717.676)">
		<g transform="translate(-6838.521 -6717.676)">
			<path fill="#F3901B" d="M245.858,252.132c-0.021,0.16-0.041,0.321-0.047,0.481c-0.561,0.494-1.055,0.988-1.604,1.436
				c0.348-0.688,0.682-1.275,1.035-1.917H245.858z"/>
			<path fill="#F3901B" d="M296.946,132.067v126.821c1.096,8.413-4.84,16.118-13.252,17.22c-1.289,0.167-2.59,0.167-3.879,0.006
				h-17.459c-8.293,1.035-15.857-4.847-16.893-13.146c-0.166-1.355-0.154-2.73,0.047-4.08v-2.804
				c0.027-1.202,0.121-2.39,0.287-3.579c0.006-0.174,0.027-0.334,0.047-0.507h-0.621c-0.34,0.688-0.682,1.289-1.021,1.936
				c-36.168,32.702-71.066,22.46-90.422,11.924c-5.602-2.991-10.846-6.597-15.635-10.763
				c-39.653-35.125-33.665-135.668-33.665-135.668c-82.519-10.255-94.143-32.034-94.143-32.034
				c-10.509-16.411,4.403-8.973,4.43-8.973c94.04,25.792,90.034-12.091,90.034-12.091c-8.938-4.146-14.655-13.093-14.659-22.948
				c-0.026-13.94,11.254-25.264,25.201-25.291c0.003,0,0.01,0,0.014,0c13.94,0.006,25.231,11.317,25.221,25.257
				c0,0.013,0,0.02,0,0.033c0.002,9.348-5.143,17.927-13.38,22.327l13.851,16.905c0,0.434,0,0.841-0.068,1.282
				c0-0.44,0.068-0.848,0.125-1.282l13.85-16.905c-8.252-4.393-13.41-12.979-13.412-22.327
				c-0.023-13.94,11.262-25.271,25.217-25.291c0.014,0,0.027,0,0.039,0c13.941,0.04,25.219,11.35,25.219,25.291
				c0,9.855-5.723,18.801-14.656,22.948c0,0-4.025,37.883,90.035,12.091c0,0,14.895-7.398,4.432,8.973
				c0,0-10.822,20.197-85.359,30.859c-2.852,0.42-5.781,0.788-8.826,1.175c0,0-23.68,97.465,23.182,109.709
				c2.604,1.115,5.414,1.656,8.244,1.583c1.949,0.007,3.9-0.154,5.822-0.474c19.049-3.138,28.102-22.013,28.102-44.012v-54.167
				c-1.094-8.433,4.848-16.15,13.279-17.246c1.289-0.167,2.598-0.173,3.893-0.013h19.623c8.426-1.048,16.117,4.927,17.166,13.367
				C297.12,129.463,297.114,130.778,296.946,132.067z"/>
		</g>
	</g>
</g>
<g>
	<g transform="translate(-886.508 -628.861)">
		<g transform="translate(968.479 628.861)">
			<path fill="#F3901B" d="M739.637,254.7c-0.01,0.054-0.014,0.108-0.016,0.165c-0.188,0.162-0.357,0.327-0.54,0.48
				c0.112-0.232,0.23-0.432,0.346-0.646H739.637z"/>
			<g transform="translate(0 0)">
				<path fill="#F3901B" d="M756.841,214.527v42.48c0.361,2.825-1.635,5.409-4.46,5.771c-0.434,0.055-0.874,0.055-1.31,0h-5.877
					c-2.787,0.353-5.332-1.624-5.685-4.411c-0.057-0.451-0.052-0.91,0.014-1.359v-0.941c0.007-0.402,0.038-0.804,0.098-1.201
					c0.002-0.057,0.006-0.111,0.016-0.165h-0.21c-0.115,0.214-0.233,0.425-0.346,0.646c-12.18,10.949-23.936,7.521-30.454,3.991
					c-1.886-0.999-3.652-2.209-5.266-3.604c-13.364-11.76-11.332-45.439-11.332-45.439c-27.795-3.434-31.71-10.728-31.71-10.728
					c-3.537-5.486,1.483-3.006,1.495-3.006c31.684,8.641,30.323-4.047,30.323-4.047c-4.257-1.967-6.113-7.015-4.146-11.272
					c1.968-4.257,7.014-6.113,11.271-4.146c4.258,1.967,6.114,7.015,4.146,11.272c-0.778,1.683-2.085,3.064-3.723,3.934l4.665,5.662
					c0,0.149,0,0.285-0.023,0.431c0.011-0.149,0.023-0.285,0.039-0.431l4.664-5.662c-4.145-2.2-5.721-7.347-3.519-11.491
					c2.202-4.146,7.348-5.721,11.492-3.521c4.146,2.202,5.723,7.349,3.521,11.493c-0.872,1.642-2.258,2.952-3.945,3.731
					c0,0-1.355,12.688,30.324,4.047c0,0,5.016-2.477,1.497,3.006c0,0-3.646,6.766-28.754,10.332
					c-0.958,0.143-1.945,0.268-2.971,0.398c0,0-7.973,32.647,7.806,36.742c0.876,0.375,1.822,0.558,2.775,0.533
					c0.657,0,1.314-0.052,1.963-0.16c6.414-1.055,9.465-7.372,9.465-14.741v-18.142c-0.361-2.832,1.645-5.423,4.479-5.782
					c0.432-0.054,0.869-0.054,1.303,0h6.608c2.832-0.354,5.414,1.655,5.769,4.485C756.898,213.662,756.898,214.097,756.841,214.527z
					"/>
			</g>
		</g>
		<g transform="translate(886.508 672.027)">
			<g transform="translate(75.066 0)">
				<path fill="#F3901B" d="M698.064,258.895c-0.553,1.583-1.119,3.146-1.702,4.69c-0.582,1.545-1.15,3.108-1.701,4.691
					c-0.276,0.757-0.549,1.495-0.824,2.215c-0.273,0.721-0.549,1.459-0.826,2.216c-0.274,0.824-0.515,1.648-0.722,2.476
					c-0.206,0.824-0.447,1.683-0.722,2.577c-0.14,0.35-0.243,0.713-0.309,1.084c-0.082,0.41-0.221,0.811-0.412,1.186
					c-0.201,0.456-0.323,0.943-0.36,1.443c-0.042,0.521-0.128,1.038-0.257,1.547c-0.145,0.852-0.334,1.693-0.566,2.524
					c-0.242,0.86-0.499,1.703-0.772,2.525c-0.322,1.016-0.7,2.015-1.134,2.987c-0.113,0.299-0.183,0.61-0.206,0.926
					c0,0.276-0.034,0.411-0.104,0.411c-0.291,0.129-0.489,0.404-0.516,0.723c-0.004,0.287-0.074,0.569-0.206,0.825l-0.256,0.515
					c-0.102,0.205-0.018,0.411,0.256,0.618c0.137,0.07,0.104,0.276-0.102,0.619c-0.276,0.965-0.567,1.927-0.877,2.887
					c-0.309,0.962-0.601,1.924-0.877,2.886c-0.345,1.376-0.705,2.717-1.081,4.022c-0.378,1.306-0.807,2.613-1.289,3.918
					c-0.136,0.4-0.221,0.815-0.256,1.238c-0.043,0.454-0.129,0.903-0.258,1.339c-0.138,0.552-0.275,1.101-0.411,1.651
					c-0.139,0.549-0.275,1.098-0.413,1.648c-0.077,0.162-0.129,0.337-0.156,0.515c-0.027,0.194-0.117,0.375-0.256,0.516
					c-0.069-0.273-0.121-0.516-0.154-0.721c-0.041-0.217-0.173-0.404-0.361-0.515c-0.091-0.156-0.128-0.339-0.104-0.518
					c0-0.205-0.07-0.31-0.205-0.31c-0.137,0-0.206,0.104-0.206,0.31v0.518c-0.127-0.141-0.167-0.339-0.102-0.518
					c0.065-0.145,0.022-0.316-0.104-0.411c-0.274-0.067-0.396,0-0.36,0.206c0.033,0.205-0.02,0.343-0.156,0.41
					c-0.138-0.067-0.154-0.153-0.05-0.257c0.104-0.104,0.085-0.188-0.052-0.258c-0.124,0.12-0.229,0.258-0.31,0.411
					c-0.067,0.136-0.176,0.244-0.31,0.31c-0.069,0-0.104,0.104-0.104,0.312c0.207,0.619,0.067,0.962-0.411,1.03
					c-0.139,0.067-0.207,0.155-0.207,0.259c0,0.104-0.068,0.156-0.205,0.156c-0.207-0.07-0.31-0.312-0.31-0.723
					c-0.007-0.296,0.027-0.59,0.102-0.876c0.066-0.23,0.136-0.535,0.206-0.877c0-0.14,0.017-0.277,0.051-0.411
					c0.033-0.135,0.051-0.272,0.051-0.413c0-0.275-0.035-0.413-0.104-0.413c-0.148-0.022-0.288,0.081-0.311,0.23
					c-0.003,0.027-0.003,0.052,0,0.079c-0.073,0.375-0.125,0.754-0.154,1.136c-0.031,0.38-0.084,0.759-0.155,1.134
					c-0.069,0.065-0.104,0.12-0.104,0.153c0,0.036-0.069,0.122-0.205,0.258c-0.004-0.312,0.03-0.621,0.102-0.926
					c0.072-0.303,0.106-0.612,0.104-0.924c0.001-0.072,0.018-0.143,0.052-0.205c0.034-0.068-0.02-0.139-0.155-0.206
					c-0.149-0.022-0.288,0.079-0.31,0.229c-0.005,0.026-0.005,0.054,0,0.081c0.075,0.307,0,0.635-0.206,0.876
					c-0.206,0.23-0.412,0.463-0.62,0.669c-0.305,0.26-0.49,0.632-0.516,1.029c-0.014,0.397-0.118,0.786-0.307,1.137
					c-0.346,0.687-0.655,1.339-0.927,1.96c-0.284,0.652-0.458,1.349-0.515,2.06c-0.054,0.341,0.176,0.662,0.515,0.721
					c0.093,0.065,0.22,0.043,0.284-0.048c0.011-0.016,0.02-0.033,0.026-0.054c0-0.273,0.104-0.414,0.31-0.414
					c0.146-0.018,0.294,0.021,0.415,0.104c0.272,0.205,0.427,0.239,0.461,0.102c0.036-0.143,0.089-0.28,0.155-0.411
					c0.065-1.089,0.273-2.161,0.617-3.195c-0.02-0.167,0.061-0.33,0.207-0.411c0.139,0.725,0.067,1.477-0.207,2.163
					c-0.274,0.689-0.414,1.423-0.41,2.164c0.168-0.019,0.319-0.113,0.41-0.256c0.11-0.155,0.323-0.191,0.479-0.083
					c0.013,0.009,0.025,0.021,0.038,0.031c0.067,0.068,0.172-0.033,0.31-0.31c0.007-0.386,0.076-0.77,0.206-1.133h0.104v-0.104
					c-0.004-0.122,0.014-0.244,0.051-0.359c0.036-0.117,0.052-0.239,0.051-0.361c0.137-0.14,0.104-0.205-0.102-0.205
					c-0.099-0.016-0.191,0.052-0.206,0.149c-0.003,0.018-0.003,0.038,0,0.056c0.062,0.111,0.098,0.233,0.104,0.361
					c0.007,0.127,0.041,0.249,0.104,0.359v0.104h-0.104c-0.199-0.184-0.296-0.452-0.259-0.721c0.013-0.23,0.104-0.449,0.259-0.621
					c0.138-0.141,0.227-0.321,0.256-0.516c0.034-0.205,0.086-0.446,0.156-0.72c0.04-0.184,0.11-0.357,0.205-0.518
					c0.063,0.091,0.081,0.206,0.051,0.31c-0.034,0.063-0.051,0.136-0.051,0.205c-0.005,0.057,0.014,0.113,0.051,0.156
					s0.056,0.1,0.051,0.156c0.243,0.264,0.451,0.558,0.619,0.876c0.04,0.339-0.032,0.685-0.206,0.978v0.414
					c0.137,0.067,0.276,0,0.412-0.206c0.13-0.179,0.187-0.399,0.155-0.616c-0.034-0.21,0.07-0.418,0.26-0.518
					c0.001,0.189-0.016,0.38-0.052,0.567c-0.035,0.187-0.053,0.377-0.05,0.566c-0.141,0.411-0.346,0.583-0.62,0.515
					c-0.275-0.065-0.412,0.104-0.412,0.518c0,0.136,0.035,0.205,0.102,0.205c0.079,0.005,0.153,0.041,0.205,0.102
					c0.137,0,0.207-0.033,0.207-0.102v-0.309l0.205,0.104c0.481,0.411,0.826,0.31,1.031-0.31c0-0.14,0.017-0.277,0.052-0.413
					c0.034-0.138,0.017-0.285-0.052-0.411c-0.015-0.196-0.066-0.389-0.154-0.567c-0.103-0.241,0.017-0.431,0.361-0.566
					c-0.216-0.26-0.256-0.623-0.102-0.924c-0.037-0.353,0.017-0.707,0.154-1.032c0.284-0.224,0.623-0.363,0.98-0.411
					c0.293,0.461,0.369,1.025,0.205,1.548c-0.067,0.675-0.17,1.346-0.31,2.01c-0.139,0.65-0.275,1.321-0.41,2.01
					c-0.054,0.059-0.127,0.097-0.207,0.104c0.129,0.375,0.003,0.789-0.31,1.03c0.066-0.275,0.171-0.616,0.31-1.03
					c-0.285,0.079-0.514,0.289-0.618,0.567c-0.065,0.217-0.101,0.44-0.104,0.666c-0.069,0.344-0.139,0.652-0.205,0.926
					c-0.084,0.314-0.188,0.624-0.31,0.926c-0.141,0.206-0.19,0.326-0.156,0.361c0.181,0.103,0.37,0.19,0.567,0.258
					c-0.353,0.219-0.552,0.619-0.517,1.032c0.063,0.048,0.085,0.133,0.051,0.206c-0.033,0.067-0.119,0.067-0.259,0
					c-0.274,0-0.308-0.104-0.102-0.31c0.137-0.206,0.085-0.346-0.154-0.411c-0.241-0.068-0.326-0.174-0.258-0.312l-0.104-0.103
					c-0.181,0.225-0.438,0.371-0.722,0.414c-0.068,0-0.139-0.07-0.205-0.208c-0.067-0.136-0.174-0.138-0.311,0
					c-0.21,0.084-0.391,0.229-0.516,0.415c-0.069,0.136-0.14,0.273-0.206,0.411c-0.073,0.163-0.109,0.339-0.104,0.516
					c-0.137-0.206-0.154-0.38-0.051-0.516c0.1-0.112,0.12-0.277,0.051-0.411c-0.138-0.164-0.138-0.403,0-0.566
					c0.137-0.174,0.171-0.294,0.104-0.361c-0.206-0.07-0.326-0.174-0.36-0.31s-0.052-0.273-0.051-0.411
					c-0.137-0.275-0.275-0.413-0.412-0.413c-0.149-0.021-0.287,0.081-0.31,0.23c-0.004,0.027-0.005,0.052,0,0.079
					c-0.096,0.158-0.165,0.332-0.206,0.515c-0.14,0.344-0.311,0.515-0.516,0.515c-0.07,0-0.121,0.053-0.154,0.156
					c-0.035,0.104-0.089,0.086-0.156-0.05c-0.205-0.346-0.23-0.551-0.102-0.621c0.342-0.138,0.497-0.327,0.463-0.566
					c-0.038-0.289-0.054-0.583-0.051-0.877c-0.074,0.271-0.263,0.497-0.516,0.619c-0.194,0.062-0.371,0.167-0.517,0.31
					c-0.124-0.057-0.231-0.145-0.31-0.258c-0.079-0.11-0.186-0.201-0.311-0.257c-0.55-0.068-0.79-0.447-0.722-1.132
					c0.07-0.626,0.191-1.244,0.361-1.852c0.173-0.617,0.327-1.27,0.462-1.958c0.07-0.217,0.106-0.443,0.104-0.671
					c0.002-0.26,0.038-0.52,0.104-0.772c-0.002-0.723,0.032-1.445,0.102-2.164c0.068-0.688,0.171-1.409,0.31-2.166
					c0.274-1.167,0.498-2.316,0.671-3.453c0.173-1.134,0.396-2.285,0.671-3.45c0.274-1.376,0.602-2.767,0.981-4.179
					c0.378-1.409,0.773-2.8,1.184-4.173c0.205-0.824,0.428-1.665,0.668-2.525c0.239-0.86,0.463-1.703,0.671-2.524
					c0.205-0.757,0.411-1.478,0.619-2.166c0.21-0.705,0.348-1.433,0.412-2.164c0.001-0.145,0.037-0.284,0.104-0.413
					c0.013-0.108,0.048-0.215,0.102-0.31c0.345,0.141,0.498,0.088,0.463-0.153c-0.046-0.203,0.013-0.416,0.155-0.567
					c0.137-0.135,0.195-0.329,0.154-0.517c-0.034-0.203-0.051-0.411-0.051-0.619c-0.007-0.506,0.063-1.01,0.205-1.495
					c0.139-0.444,0.276-0.907,0.413-1.387c0.344-0.962,0.688-1.958,1.03-2.99c0.345-1.032,0.689-2.027,1.032-2.99
					c0.137-0.343,0.257-0.668,0.361-0.978s0.23-0.635,0.36-0.98c0.274-0.688,0.497-1.396,0.669-2.113
					c0.17-0.723,0.359-1.459,0.565-2.216c0.273-0.824,0.581-1.633,0.926-2.423c0.344-0.793,0.688-1.6,1.031-2.424
					c0.549-1.578,1.082-3.126,1.598-4.639c0.518-1.511,1.05-3.058,1.599-4.639c0.13-0.528,0.303-1.046,0.516-1.547
					c0.205-0.479,0.412-0.994,0.619-1.548c0.119-0.269,0.223-0.544,0.311-0.824c-0.381-0.061-0.772-0.026-1.136,0.104
					c-0.559,0.14-1.108,0.312-1.648,0.515c-0.576,0.219-1.128,0.497-1.648,0.826c-0.323,0.194-0.671,0.351-1.032,0.461
					c-0.345,0.102-0.693,0.232-1.031,0.361c-0.932,0.265-1.844,0.592-2.731,0.979c-0.86,0.379-1.735,0.774-2.627,1.186
					c-0.617,0.275-1.233,0.515-1.851,0.72c-0.615,0.206-1.203,0.481-1.754,0.827c-0.816,0.339-1.607,0.734-2.37,1.184
					c-0.756,0.447-1.513,0.876-2.269,1.287c-0.48,0.275-0.942,0.551-1.387,0.826c-0.463,0.282-0.968,0.49-1.495,0.619
					c-0.618,0.275-1.199,0.567-1.752,0.876c-0.554,0.312-1.099,0.637-1.648,0.979c-0.345,0.207-0.705,0.413-1.083,0.618
					c-0.379,0.208-0.776,0.38-1.187,0.516c-0.607,0.341-1.27,0.566-1.959,0.668c-0.687,0.104-1.373,0.224-2.063,0.361h-0.206
					c-0.488-0.138-1.006-0.138-1.494,0c-0.442,0.136-0.874,0.31-1.288,0.515c-0.985,0.547-2.176,0.585-3.195,0.104
					c-0.972-0.49-1.712-1.342-2.063-2.371c-0.521-1.252-0.28-2.688,0.62-3.702c0.479-0.852,1.393-1.366,2.37-1.337
					c0.302-0.079,0.583-0.219,0.826-0.413c0.414-0.206,0.826-0.396,1.237-0.567c0.397-0.164,0.813-0.286,1.237-0.358
					c0.91-0.258,1.806-0.567,2.681-0.926c1.428-0.861,2.999-1.455,4.639-1.753c0.785-0.217,1.557-0.475,2.313-0.772
					c0.757-0.298,1.529-0.556,2.313-0.772c1.189-0.35,2.36-0.764,3.507-1.237c1.169-0.481,2.336-0.929,3.503-1.34
					c0.825-0.343,1.65-0.652,2.475-0.924c0.824-0.272,1.683-0.548,2.576-0.826c0.259-0.131,0.539-0.219,0.825-0.258
					c0.318-0.045,0.63-0.131,0.926-0.255c0.411-0.138,0.825-0.291,1.238-0.463c0.391-0.163,0.769-0.353,1.132-0.566
					c0.916-0.464,1.863-0.858,2.836-1.187c0.925-0.309,1.87-0.634,2.834-0.979c0.757-0.341,1.495-0.65,2.216-0.924
					c0.725-0.273,1.46-0.583,2.218-0.926c0.26-0.052,0.463-0.256,0.516-0.516c0.135-0.269,0.256-0.544,0.362-0.826
					c0.1-0.269,0.186-0.544,0.256-0.822c0.253-0.65,0.601-1.258,1.032-1.805c0.411-0.515,0.823-1.048,1.236-1.599
					c0.272-0.344,0.758-0.432,1.134-0.205c0.246,0.128,0.505,0.232,0.772,0.309c0.254,0.084,0.461,0.271,0.565,0.518
					c0.137,0.138,0.231,0.205,0.311,0.205c0.597,0.108,1.076,0.549,1.238,1.134c0.136,0.346,0.412,0.447,0.825,0.31
					c1.304-0.479,2.575-0.96,3.813-1.443c1.238-0.482,2.544-0.964,3.917-1.442c1.443-0.481,2.87-1.015,4.278-1.6
					c1.409-0.582,2.837-1.149,4.28-1.698l2.268-0.826l2.268-0.824c0.962-0.275,1.905-0.499,2.834-0.671
					c0.928-0.174,1.908-0.327,2.938-0.463c-0.249,0.126-0.506,0.23-0.772,0.31c-0.233,0.069-0.463,0.138-0.671,0.205
					c-0.481,0.138-0.944,0.258-1.389,0.361c-0.443,0.104-0.906,0.224-1.387,0.361c-0.371,0.149-0.732,0.323-1.082,0.515
					c-0.351,0.192-0.712,0.366-1.084,0.516c-0.434,0.108-0.815,0.363-1.082,0.723c-0.262,0.368-0.554,0.713-0.876,1.032
					c-0.206,0.205-0.206,0.377,0,0.515c0.067,0.07,0.23,0.034,0.515-0.102c0.265-0.267,0.578-0.479,0.926-0.619
					c0.373-0.155,0.721-0.363,1.032-0.619c0.136,0.141,0.153,0.258,0.05,0.361c-0.102,0.093-0.122,0.244-0.05,0.361
					c0.145,0.068,0.316,0.023,0.411-0.104c0.097-0.129,0.269-0.172,0.413-0.104c-0.205,0.138-0.31,0.241-0.31,0.31
					c0,0.067,0.136,0.205,0.411,0.413c0.138,0.273,0.104,0.411-0.104,0.411c-0.267,0.133-0.511,0.307-0.721,0.517
					c-0.222,0.21-0.52,0.323-0.824,0.31c-0.067,0-0.129,0.041-0.153,0.104c-0.036,0.07-0.122,0.034-0.258-0.104
					c-0.07-0.138-0.155-0.172-0.26-0.102c-0.102,0.067-0.16,0.186-0.151,0.308c0,0.41-0.14,0.654-0.415,0.72
					c-0.285,0.075-0.561,0.179-0.822,0.312c0.33-0.248,0.642-0.523,0.924-0.824c-0.549,0.206-1.066,0.411-1.547,0.619
					c-0.493,0.21-1.015,0.348-1.548,0.413c0.283-0.215,0.542-0.456,0.775-0.723c0.239-0.273,0.539-0.485,0.878-0.619
					c0.213-0.076,0.341-0.293,0.31-0.517c0.375-0.036,0.734-0.179,1.032-0.411c-0.186-0.007-0.366,0.048-0.518,0.156
					c-0.155,0.112-0.329,0.198-0.515,0.255c-0.275,0.14-0.535,0.275-0.772,0.413c-0.239,0.136-0.499,0.275-0.772,0.413
					c-0.069,0.07-0.172,0-0.31-0.205h0.104c0.136-0.273,0.273-0.411,0.411-0.411c0.205,0.138,0.31,0.138,0.31,0
					c0.002-0.145,0.038-0.284,0.104-0.413c-0.267,0.026-0.528,0.097-0.774,0.205c-0.102,0.07-0.12,0.275-0.05,0.619h-0.104
					c-0.275,0.07-0.532,0.138-0.771,0.205c-0.267,0.079-0.526,0.184-0.772,0.31c-0.244,0.127-0.505,0.213-0.773,0.258
					c-0.242,0.036-0.5,0.086-0.772,0.155v-0.102c0.205-0.138,0.275-0.275,0.205-0.415c-0.087-0.113-0.249-0.136-0.363-0.048
					c-0.019,0.014-0.034,0.029-0.048,0.048c-0.359,0.083-0.639,0.363-0.723,0.723c0.12-0.129,0.287-0.203,0.463-0.206
					c0.16,0.003,0.318-0.033,0.463-0.102v0.102c-0.144,0.145-0.249,0.321-0.311,0.516c-0.068,0.205-0.275,0.275-0.62,0.205
					c-0.274-0.067-0.428,0.019-0.461,0.258c-0.033,0.221-0.052,0.444-0.052,0.671c0.203-0.068,0.409-0.12,0.619-0.156
					c0.224-0.041,0.435-0.127,0.62-0.258c0.137,0,0.207,0.036,0.207,0.104v0.312l-1.238,0.619c0.356,0.145,0.76,0.104,1.082-0.104
					c0.289-0.198,0.63-0.307,0.98-0.31c0,0.414-0.23,0.617-0.721,0.617c-0.431,0.009-0.822,0.246-1.032,0.621h-0.31
					c-0.14,0.138-0.206,0.23-0.206,0.309c0.137,0,0.206-0.031,0.206-0.102c0.067,0,0.171-0.067,0.31-0.205l0,0
					c0.355,0.126,0.752,0.048,1.032-0.205c0.343-0.139,0.636-0.258,0.876-0.361c0.231-0.103,0.532-0.233,0.878-0.362
					c0.138-0.138,0.205-0.138,0.205,0c0.068,0.07,0.034,0.175-0.104,0.31c-0.687,0.414-1.413,0.759-2.166,1.032
					c-0.757,0.275-1.513,0.585-2.269,0.926c-0.18,0.082-0.37,0.134-0.567,0.154c-0.229,0.036-0.395,0.232-0.461,0.566
					c-0.07,0.14-0.14,0.14-0.207,0c-0.066-0.138-0.138-0.172-0.206-0.102c-0.07,0.072-0.124,0.16-0.154,0.258
					c-0.035,0.104-0.121,0.119-0.256,0.05c-0.161-0.134-0.387-0.154-0.567-0.05c-0.168,0.099-0.323,0.221-0.463,0.358
					c-0.463,0.335-0.964,0.612-1.493,0.827c-0.515,0.205-1.014,0.447-1.495,0.723l-2.474,1.235c-0.828,0.415-1.69,0.761-2.576,1.032
					c-0.887,0.269-1.58,0.962-1.851,1.85c-0.139,0.411-0.256,0.826-0.36,1.237c-0.104,0.411-0.231,0.824-0.361,1.237
					c-0.19,0.91-0.449,1.808-0.772,2.682C698.746,257.161,698.414,258.003,698.064,258.895z M672.91,321.677
					c-0.017,0.174-0.089,0.337-0.206,0.463c-0.139,0.172-0.104,0.361,0.102,0.569c0.207-0.305,0.25-0.691,0.115-1.032H672.91z
					 M674.456,328.792c0.112-0.009,0.225,0.027,0.31,0.102c0.137,0.136,0.102,0.275-0.102,0.413
					c-0.122,0.11-0.213,0.253-0.259,0.411c-0.058,0.16-0.195,0.277-0.36,0.312v-0.926c0.044-0.196,0.228-0.332,0.429-0.312H674.456z
					 M674.56,327.245c-0.063-0.217-0.08-0.445-0.051-0.669c0.152-0.253,0.345-0.479,0.567-0.671
					c0.017,0.267-0.038,0.533-0.155,0.772c-0.093,0.179-0.216,0.361-0.353,0.567H674.56z M674.766,319.1
					c0-0.275,0.102-0.413,0.311-0.413s0.231,0.136,0.102,0.413c-0.072,0.235-0.107,0.479-0.102,0.723
					c0,0.273-0.172,0.481-0.517,0.619c0.068-0.275,0.121-0.515,0.156-0.721c0.036-0.205,0.057-0.413,0.06-0.621H674.766z
					 M674.664,323.534c0.205-0.341,0.242-0.759,0.102-1.132c-0.201,0.344-0.235,0.759-0.093,1.13L674.664,323.534z M675.59,315.803
					c0.069,0.312,0.033,0.637-0.104,0.926c-0.134,0.262-0.238,0.54-0.311,0.824c-0.12-0.619,0.035-1.258,0.426-1.752L675.59,315.803
					z M675.28,323.843c0.142-0.239,0.247-0.499,0.311-0.772c-0.021-0.14-0.094-0.271-0.206-0.359
					c-0.069,0.136-0.139,0.289-0.206,0.463c-0.062,0.23-0.021,0.477,0.113,0.676L675.28,323.843z M676.001,328.277
					c0.124,0.183,0.161,0.408,0.102,0.621c-0.069,0.135-0.14,0.275-0.206,0.413c-0.002-0.156-0.019-0.31-0.051-0.463
					c-0.025-0.206,0.035-0.414,0.169-0.574L676.001,328.277z M676.206,327.761c0.067-0.138,0.189-0.171,0.361-0.102
					c0.172,0.07,0.257-0.036,0.257-0.31c0.063,0.235,0.098,0.477,0.104,0.721c0,0.206-0.174,0.377-0.516,0.518
					c-0.073-0.145-0.159-0.282-0.257-0.414c-0.1-0.121-0.081-0.3,0.041-0.399c0.007-0.004,0.014-0.011,0.021-0.016L676.206,327.761z
					 M677.65,323.432c0.205-0.275,0.258-0.499,0.155-0.671c-0.099-0.133-0.118-0.31-0.051-0.463
					c-0.131,0.115-0.19,0.294-0.154,0.463c0.043,0.222,0.063,0.445,0.064,0.669L677.65,323.432z M678.165,323.637
					c0.207-0.069,0.231-0.229,0.105-0.515c-0.265,0.134-0.3,0.308-0.096,0.513L678.165,323.637z M678.887,318.279
					c0.13-0.118,0.188-0.294,0.156-0.464c-0.037-0.155-0.02-0.318,0.05-0.463h0.102v0.104c0.009,0.28-0.025,0.558-0.102,0.826
					L678.887,318.279z M679.404,310.134c0.113-0.086,0.137-0.248,0.051-0.361c-0.014-0.021-0.032-0.038-0.051-0.052
					c0.001,0.067-0.041,0.129-0.104,0.153c-0.069,0.038-0.069,0.088,0,0.156c-0.009,0.05,0.024,0.095,0.073,0.104
					c0.014,0.003,0.028,0.003,0.042-0.002L679.404,310.134z M679.714,312.91c0.004-0.052-0.032-0.097-0.083-0.102
					c-0.007,0-0.014,0-0.019,0c-0.277,0.206-0.346,0.411-0.207,0.619c0.281-0.136,0.388-0.305,0.319-0.513L679.714,312.91z
					 M680.745,299.303c0.126-0.244,0.213-0.504,0.257-0.772c0.029-0.269-0.025-0.538-0.155-0.772
					c-0.175,0.382-0.313,0.776-0.412,1.186c-0.138,0.518-0.275,1.032-0.411,1.547c-0.133,0.492-0.236,0.991-0.309,1.495
					c-0.075,0.303-0.075,0.621,0,0.924c0.061-0.052,0.098-0.126,0.104-0.205c0.005-0.079,0.043-0.154,0.104-0.206
					c0.197-0.52,0.352-1.055,0.463-1.599c0.104-0.511,0.233-1.041,0.372-1.593L680.745,299.303z M680.745,308.89
					c-0.199,0.33-0.371,0.675-0.516,1.032c-0.14,0.361-0.21,0.745-0.206,1.134c0.258-0.308,0.419-0.685,0.464-1.084
					c0.036-0.371,0.126-0.734,0.27-1.08L680.745,308.89z M682.291,308.89c-0.206,0.14-0.241,0.413-0.104,0.824
					c-0.13-0.129-0.267-0.251-0.412-0.361c-0.122-0.1-0.303-0.081-0.403,0.041c-0.003,0.004-0.006,0.007-0.008,0.011
					c-0.342,0.275-0.533,0.695-0.516,1.134c-0.069,0.14,0,0.258,0.205,0.361c0.158,0.091,0.334,0.143,0.517,0.156
					c0.045-0.506,0.264-0.98,0.617-1.342c-0.068-0.129-0.068-0.282,0-0.411c0.069-0.126,0.109-0.267,0.115-0.411L682.291,308.89z
					 M681.367,307.343c0.19-0.344,0.344-0.707,0.462-1.082c0.028-0.294,0.012-0.59-0.051-0.876
					c-0.336,0.596-0.479,1.282-0.404,1.962L681.367,307.343z M683.016,301.157c0.067-0.343,0.137-0.65,0.205-0.926l0.206-0.824
					l-0.206-0.104c0.005,0.32-0.065,0.637-0.205,0.924c-0.14,0.293-0.14,0.632,0,0.926c-0.275,0.138-0.411,0.31-0.411,0.515
					c0.01,0.212-0.025,0.425-0.105,0.621c-0.206,0.348-0.347,0.731-0.411,1.134c-0.071,0.418-0.175,0.833-0.311,1.235
					c-0.205,0.206-0.139,0.312,0.206,0.312c0.136-0.404,0.239-0.817,0.311-1.237c0.079-0.437,0.297-0.833,0.62-1.134
					c0.205-0.206,0.239-0.31,0.102-0.31c-0.274-0.208-0.36-0.396-0.258-0.566c0.112-0.177,0.203-0.364,0.273-0.561L683.016,301.157z
					 M681.882,301.878c0.132-0.255,0.203-0.537,0.206-0.824c-0.18,0.235-0.25,0.535-0.197,0.826L681.882,301.878z M712.705,243.016
					c0.067,0.138,0.169,0.138,0.311,0v-0.206c-0.063,0.005-0.165,0.072-0.302,0.211L712.705,243.016z M720.127,238.271
					c0,0.07,0.104,0,0.31-0.205c0-0.136-0.034-0.206-0.102-0.206c-0.065,0-0.174,0.07-0.31,0.206
					c0.009,0.145,0.041,0.217,0.11,0.217L720.127,238.271z M720.848,237.652c-0.063-0.047-0.084-0.133-0.05-0.205
					c0.029-0.106,0.012-0.219-0.052-0.31c-0.206,0.138-0.256,0.23-0.153,0.31c0.095,0.061,0.183,0.133,0.264,0.212L720.848,237.652z
					 M722.291,237.961c0.138,0.07,0.272,0,0.413-0.205c-0.007-0.124,0.052-0.242,0.153-0.31c0.113-0.079,0.201-0.186,0.258-0.31
					c-0.249,0.086-0.488,0.189-0.723,0.31c-0.138,0.07-0.17,0.205-0.102,0.411V237.961z"/>
				<path fill="#F3901B" d="M744.571,281.371c0.413,0,0.549,0.308,0.413,0.924c-0.12,0.499-0.294,0.982-0.518,1.443
					c-0.205,0.413-0.447,0.86-0.72,1.342c-0.552,0.964-1.137,1.926-1.753,2.886c-0.63,0.987-1.184,2.02-1.65,3.092
					c-0.139,0.28-0.313,0.54-0.516,0.775c-0.208,0.243-0.248,0.591-0.104,0.876c0.136,0.14,0.031,0.312-0.31,0.517
					c-1.308,1.927-2.579,3.713-3.816,5.359c-0.858,1.283-1.784,2.519-2.776,3.702c-0.193,0.327-0.42,0.637-0.67,0.924
					c-0.242,0.275-0.5,0.582-0.772,0.926c-0.147,0.151-0.27,0.325-0.359,0.515c-0.093,0.192-0.215,0.366-0.361,0.518
					c-0.384,0.91-0.867,1.772-1.443,2.576c-0.553,0.757-1.136,1.514-1.752,2.268c-0.093,0.1-0.197,0.188-0.313,0.26
					c-0.112,0.07-0.217,0.158-0.307,0.256l-1.85,1.237c-0.723,0.399-1.569,0.511-2.371,0.312h-0.206
					c-0.312,0.012-0.623-0.024-0.926-0.106c-0.153,0-0.31-0.018-0.461-0.05c-0.153-0.031-0.307-0.049-0.463-0.052
					c-0.14,0.07-0.23,0.088-0.26,0.052c-0.077-0.045-0.167-0.063-0.255-0.052h-0.102c-0.693-0.047-1.366-0.26-1.961-0.618
					c-0.56-0.353-1.05-0.807-1.442-1.34l-2.165-2.775c-0.345-0.413-0.722-0.413-1.134,0c-0.339,0.203-0.621,0.485-0.823,0.824
					c-0.337,0.54-0.753,1.027-1.236,1.443l-1.443,1.237c-0.145,0.213-0.318,0.402-0.516,0.567c-0.206,0.171-0.412,0.361-0.62,0.566
					c-0.325,0.466-0.748,0.852-1.238,1.134c-0.344,0.206-0.67,0.396-0.979,0.567c-0.34,0.198-0.637,0.46-0.877,0.771
					c-0.165,0.249-0.427,0.416-0.721,0.464c-0.308,0.036-0.617,0.052-0.925,0.049c-1.231,0.342-2.543,0.23-3.701-0.309
					c-0.288-0.149-0.521-0.382-0.671-0.671c-0.178-0.31-0.519-0.49-0.877-0.463c-0.621,0-1.229-0.179-1.753-0.516
					c-0.48-0.205-0.946-0.395-1.388-0.568c-0.452-0.174-0.885-0.397-1.288-0.669c-1.225-0.807-2.078-2.068-2.37-3.505
					c-0.066-0.323-0.084-0.652-0.051-0.979c0.036-0.325,0.053-0.652,0.051-0.979c-0.073-0.906,0.031-1.816,0.311-2.681
					c0.275-0.824,0.551-1.686,0.825-2.577c0.344-1.373,0.792-2.717,1.339-4.022c0.549-1.303,1.1-2.645,1.649-4.018
					c0.616-1.511,1.232-2.99,1.851-4.434c0.616-1.445,1.2-2.889,1.753-4.329c0.196-0.461,0.42-0.908,0.67-1.339
					c0.231-0.416,0.497-0.858,0.772-1.342c0.1-0.312,0.354-0.547,0.671-0.621c0.32-0.068,0.649-0.104,0.979-0.104
					c0.522,0.065,1.039,0.169,1.547,0.312c0.518,0.155,1.006,0.399,1.442,0.72c0.265,0.197,0.506,0.423,0.722,0.671
					c0.238,0.267,0.517,0.492,0.826,0.671c0,0.07,0.017,0.102,0.052,0.102c0.033,0,0.05,0.034,0.05,0.104
					c0.458,0.905,0.821,1.854,1.083,2.834c0.233,0.991,0.104,2.035-0.36,2.94c-0.27,0.599-0.492,1.217-0.669,1.85
					c-0.173,0.616-0.361,1.233-0.566,1.85c-0.482,1.308-0.945,2.577-1.388,3.814c-0.442,1.235-0.905,2.509-1.389,3.816
					c-0.341,0.748-0.551,1.55-0.616,2.369c-0.067,0.824-0.103,1.651-0.104,2.476v0.411c0,0.138,0.104,0.23,0.31,0.31
					c0.306,0.014,0.604-0.098,0.825-0.31c0.549-0.754,1.047-1.493,1.494-2.216c0.447-0.72,0.944-1.461,1.493-2.218
					c1.1-1.581,2.129-3.195,3.094-4.844c0.963-1.651,1.925-3.269,2.886-4.858c0.824-1.373,1.684-2.696,2.578-3.968
					s1.856-2.525,2.887-3.763c0.666-0.728,1.253-1.52,1.755-2.369c0.386-0.53,0.9-0.955,1.492-1.237
					c0.585-0.275,1.152-0.585,1.701-0.926c0.354-0.127,0.749-0.046,1.029,0.205c0.275,0.205,0.549,0.396,0.827,0.566
					c0.312,0.184,0.67,0.271,1.031,0.258c0.394,0.034,0.743,0.269,0.924,0.619c0.344,0.48,0.669,0.962,0.98,1.443
					c0.31,0.48,0.632,0.964,0.98,1.442c0.341,0.556,0.417,1.233,0.205,1.85c-0.181,0.771-0.494,1.502-0.926,2.166
					c-0.456,0.509-0.809,1.104-1.032,1.753c-0.203,0.614-0.479,1.203-0.822,1.752c-0.551,1.17-1.032,2.32-1.443,3.453
					c-0.41,1.134-0.857,2.283-1.341,3.453c-0.346,0.825-0.707,1.633-1.082,2.424c-0.384,0.795-0.813,1.567-1.29,2.313
					c-0.262,0.377-0.406,0.826-0.41,1.287c0.002,0.466,0.036,0.929,0.102,1.389c0,0.206,0.067,0.31,0.205,0.31
					c0.344-0.413,0.705-0.809,1.084-1.186c0.396-0.399,0.757-0.831,1.082-1.289c0.616-0.755,1.27-1.478,1.958-2.164
					c0.688-0.688,1.411-1.375,2.166-2.062c0.685-0.685,1.354-1.373,2.012-2.063c0.655-0.688,1.29-1.411,1.904-2.163
					c1.1-1.235,2.218-2.455,3.352-3.661c1.134-1.208,2.252-2.428,3.352-3.658c0.754-0.757,1.459-1.495,2.113-2.218
					c0.687-0.766,1.324-1.574,1.906-2.422c0.161-0.234,0.332-0.458,0.518-0.67c0.181-0.218,0.389-0.407,0.619-0.567
					C743.995,281.52,744.275,281.389,744.571,281.371z"/>
			</g>
			<g transform="translate(111.746 13.209)">
				<path fill="#252E5E" d="M720.852,262.776v38.581h-12.06v-38.581h-10.653v-10.793h33.366v10.793H720.852z"/>
				<path fill="#252E5E" d="M744.482,277.582c2.439-0.018,4.858,0.438,7.123,1.342v-1.342c0-2.256-1.834-4.018-5.644-4.018
					c-3.238,0.062-6.423,0.856-9.31,2.329l-4.374-7.9c4.462-2.999,9.72-4.594,15.095-4.585c12.768,0,16.013,6.562,16.013,15.032
					v22.912h-10.511l-0.635-2.046c-2.27,2.1-5.308,3.173-8.395,2.963c-7.264,0-13.752-4.375-13.752-12.415
					C730.089,282.452,735.734,277.582,744.482,277.582z M746.88,293.242c2.821,0,4.938-1.339,4.938-3.81
					c0-2.543-2.185-3.95-5.01-3.95c-2.823,0-4.937,1.554-4.937,3.95C741.882,291.903,744.127,293.242,746.88,293.242z"/>
				<path fill="#252E5E" d="M765.573,250.359h11.777v51.007h-11.777V250.359z"/>
				<path fill="#252E5E" d="M790.188,285.907c0.621,3.77,4.024,6.434,7.832,6.136c3.069,0.005,5.958-1.463,7.758-3.952l7.761,5.998
					c-3.406,5.342-9.4,8.461-15.729,8.183c-12.199,0-19.678-8.393-19.678-19.327c0-10.87,7.334-19.54,18.199-19.54
					c11.779,0,18.198,7.55,18.198,20.175c0,0.692,0,1.481-0.07,2.326L790.188,285.907z M790.542,278.429h11.992
					c-0.095-3.135-2.712-5.602-5.847-5.509c-0.05,0.002-0.102,0.005-0.151,0.007c-3.152-0.077-5.802,2.355-5.994,5.504V278.429z"/>
				<path fill="#252E5E" d="M836.814,279.276c0.318-2.586-1.522-4.939-4.108-5.258c-0.248-0.029-0.497-0.041-0.748-0.031
					c-2.707-0.108-4.988,1.996-5.099,4.704c-0.007,0.194-0.005,0.391,0.011,0.585v22.076h-11.777v-37.027h11.497v3.808
					c2.123-3.026,5.615-4.799,9.312-4.727c11.563,0,12.697,9.876,12.697,17.424v20.522h-11.78L836.814,279.276z"/>
				<path fill="#252E5E" d="M863.689,264.325h6.276v9.526h-6.276v13.614c0,3.238,2.188,4.02,4.585,4.02c0.632,0,1.199,0,1.974-0.07
					v10.089c-1.481,0.32-2.997,0.463-4.515,0.422c-8.745,0-13.824-4.02-13.824-15.032v-13.042h-3.595v-9.521h3.595v-7.823h11.78
					V264.325z"/>
				<path fill="#252E5E" d="M889.787,263.406c11.922,0,20.314,8.183,20.314,19.397c0,11.144-8.604,19.468-20.314,19.468
					c-11.778,0-20.103-8.183-20.103-19.327c-0.102-10.694,8.482-19.447,19.177-19.552
					C889.171,263.39,889.478,263.394,889.787,263.406z M889.787,291.903c4.735-0.014,8.563-3.864,8.55-8.601
					c-0.002-0.167-0.006-0.332-0.016-0.496c0.301-4.673-3.243-8.702-7.916-9.003c-0.205-0.014-0.413-0.02-0.618-0.018
					c-4.855,0-8.325,3.737-8.325,9.169c-0.361,4.566,3.047,8.562,7.611,8.923C889.311,291.896,889.55,291.905,889.787,291.903z"/>
			</g>
			<g transform="translate(0 13.245)">
				<path fill="#252E5E" d="M551.457,276.785c-0.12-14.298,11.371-25.985,25.669-26.105c14.297-0.119,25.984,11.374,26.104,25.67
					c0.119,14.298-11.373,25.983-25.67,26.105c-0.073,0-0.146,0-0.221,0c-13.686,0.604-25.271-9.999-25.875-23.683
					C551.436,278.108,551.433,277.447,551.457,276.785z M564.012,276.785c0,8.324,5.502,14.389,13.332,14.389
					c7.831,0,13.332-6.066,13.332-14.389c0-8.114-5.432-14.248-13.332-14.248S564.012,268.673,564.012,276.785z"/>
				<path fill="#252E5E" d="M618.044,264.512h5.782v9.521h-5.782v27.508h-11.778v-27.505h-3.883v-9.521h3.881v-1.058
					c0-9.733,6.912-13.049,14.672-13.049c1.41,0,2.257,0.072,3.598,0.14v9.876c-0.629-0.099-1.267-0.146-1.903-0.142
					c-3.034,0-4.586,1.199-4.586,3.455V264.512z"/>
				<path fill="#252E5E" d="M645.625,275.588c-0.63-0.095-1.267-0.142-1.904-0.14c-5.715,0-7.617,4.162-7.617,9.733v16.365h-11.779
					v-37.031h11.497v4.938c1.815-3.729,5.664-6.025,9.806-5.854L645.625,275.588z"/>
				<path fill="#252E5E" d="M655.004,286.096c0.619,3.77,4.022,6.437,7.832,6.139c3.07,0.007,5.957-1.464,7.759-3.95l7.759,5.996
					c-3.406,5.339-9.399,8.458-15.727,8.18c-12.201,0-19.678-8.392-19.678-19.327c0-10.868,7.335-19.535,18.197-19.535
					c11.781,0,18.198,7.547,18.198,20.172c0,0.705,0,1.481-0.068,2.326H655.004z M655.357,278.621h11.991
					c-0.092-3.137-2.71-5.603-5.846-5.508c-0.05,0-0.101,0.002-0.15,0.004c-3.152-0.076-5.802,2.355-5.993,5.504H655.357z"/>
				<path fill="#252E5E" d="M705.862,289.482l3.103,9.664c-3.206,2.17-6.995,3.326-10.868,3.313
					c-11.779,0-20.102-8.04-20.102-19.396c-0.177-10.585,8.26-19.31,18.844-19.485c0.396-0.007,0.792,0,1.188,0.018
					c3.934-0.057,7.784,1.127,11.005,3.386l-3.174,9.943c-2.073-1.747-4.689-2.719-7.4-2.75c-4.55-0.246-8.438,3.243-8.685,7.794
					c-0.019,0.341-0.016,0.682,0.008,1.022c-0.268,4.757,3.37,8.831,8.128,9.097c0.323,0.019,0.646,0.019,0.97,0
					C701.431,292.02,703.889,291.103,705.862,289.482z"/>
				<path fill="#252E5E" d="M719.761,286.096c0.619,3.77,4.021,6.437,7.829,6.139c3.07,0.007,5.957-1.464,7.759-3.95l7.759,5.996
					c-3.405,5.341-9.399,8.458-15.727,8.18c-12.201,0-19.681-8.392-19.681-19.327c0-10.868,7.336-19.535,18.199-19.535
					c11.779,0,18.197,7.547,18.197,20.172c0,0.705,0,1.481-0.069,2.326H719.761z M720.115,278.621h11.99
					c-0.093-3.137-2.71-5.603-5.847-5.508c-0.049,0-0.1,0.002-0.149,0.004c-3.154-0.079-5.805,2.354-5.996,5.504H720.115z"/>
			</g>
		</g>
	</g>
</g>
</svg>
