<?xml version="1.0" encoding="utf-8"?>
<!-- Generator: Adobe Illustrator 16.0.3, SVG Export Plug-In . SVG Version: 6.00 Build 0)  -->
<!DOCTYPE svg PUBLIC "-//W3C//DTD SVG 1.1//EN" "http://www.w3.org/Graphics/SVG/1.1/DTD/svg11.dtd">
<svg version="1.1" id="Capa_1" xmlns="http://www.w3.org/2000/svg" xmlns:xlink="http://www.w3.org/1999/xlink" x="0px" y="0px"
	 width="812.959px" height="178.491px" viewBox="0 0 812.959 178.491" enable-background="new 0 0 812.959 178.491"
	 xml:space="preserve">
<g>
	<g transform="translate(6838.521 6717.676)">
		<g transform="translate(-6838.521 -6717.676)">
			<path fill="#F3901B" d="M-189.12,474.121c-0.021,0.16-0.041,0.32-0.047,0.48c-0.561,0.494-1.055,0.988-1.604,1.436
				c0.348-0.688,0.682-1.275,1.035-1.916H-189.12z"/>
			<path fill="#F3901B" d="M-138.032,354.056v126.821c1.096,8.414-4.84,16.119-13.252,17.221c-1.289,0.166-2.59,0.166-3.879,0.006
				h-17.459c-8.293,1.035-15.857-4.848-16.893-13.146c-0.166-1.355-0.154-2.73,0.047-4.08v-2.803
				c0.027-1.202,0.121-2.391,0.287-3.579c0.006-0.174,0.027-0.334,0.047-0.507h-0.621c-0.34,0.688-0.682,1.288-1.021,1.936
				c-36.168,32.701-71.066,22.461-90.422,11.924c-5.602-2.99-10.846-6.596-15.635-10.762
				c-39.653-35.126-33.665-135.668-33.665-135.668c-82.519-10.255-94.143-32.034-94.143-32.034
				c-10.509-16.411,4.403-8.973,4.43-8.973c94.04,25.792,90.034-12.091,90.034-12.091c-8.938-4.146-14.655-13.093-14.659-22.948
				c-0.026-13.94,11.254-25.264,25.201-25.291c0.003,0,0.01,0,0.014,0c13.94,0.006,25.231,11.317,25.221,25.257
				c0,0.013,0,0.02,0,0.033c0.002,9.348-5.143,17.927-13.38,22.327l13.851,16.905c0,0.434,0,0.841-0.068,1.282
				c0-0.44,0.068-0.848,0.125-1.282l13.85-16.905c-8.252-4.393-13.41-12.979-13.412-22.327
				c-0.023-13.94,11.262-25.271,25.217-25.291c0.014,0,0.027,0,0.039,0c13.941,0.04,25.219,11.35,25.219,25.291
				c0,9.855-5.723,18.801-14.656,22.948c0,0-4.025,37.883,90.035,12.091c0,0,14.895-7.398,4.432,8.973
				c0,0-10.822,20.197-85.359,30.859c-2.852,0.42-5.781,0.788-8.826,1.175c0,0-23.68,97.465,23.182,109.709
				c2.604,1.115,5.414,1.656,8.244,1.582c1.949,0.008,3.9-0.153,5.822-0.474c19.049-3.138,28.102-22.013,28.102-44.012v-54.167
				c-1.094-8.433,4.848-16.15,13.279-17.246c1.289-0.167,2.598-0.173,3.893-0.013h19.623c8.426-1.048,16.117,4.927,17.166,13.367
				C-137.858,351.452-137.864,352.767-138.032,354.056z"/>
		</g>
	</g>
</g>
<g>
	<g transform="translate(-886.508 -628.861)">
		<g transform="translate(886.508 672.027)">
			<g transform="translate(75.066 0)">
				<path fill="#F3901B" d="M309.411,14.644c-0.9,2.578-1.822,5.123-2.771,7.637c-0.947,2.516-1.873,5.061-2.77,7.638
					c-0.45,1.232-0.894,2.435-1.342,3.606c-0.445,1.173-0.894,2.375-1.346,3.607c-0.446,1.342-0.838,2.684-1.175,4.031
					c-0.335,1.342-0.729,2.74-1.175,4.196c-0.228,0.569-0.396,1.161-0.503,1.765c-0.133,0.667-0.359,1.32-0.671,1.93
					c-0.327,0.743-0.526,1.536-0.586,2.35c-0.069,0.849-0.209,1.69-0.419,2.519c-0.235,1.386-0.544,2.757-0.922,4.11
					c-0.395,1.401-0.813,2.773-1.258,4.112c-0.524,1.654-1.14,3.28-1.846,4.864c-0.185,0.486-0.298,0.994-0.336,1.507
					c0,0.45-0.056,0.669-0.168,0.669c-0.474,0.21-0.797,0.658-0.84,1.177c-0.006,0.467-0.121,0.927-0.335,1.343l-0.417,0.838
					c-0.165,0.334-0.028,0.669,0.417,1.006c0.222,0.115,0.17,0.45-0.166,1.008c-0.45,1.571-0.924,3.137-1.428,4.7
					c-0.502,1.566-0.978,3.132-1.428,4.698c-0.562,2.24-1.148,4.423-1.76,6.549c-0.615,2.125-1.313,4.254-2.1,6.379
					c-0.221,0.652-0.358,1.328-0.416,2.016c-0.07,0.739-0.21,1.471-0.42,2.18c-0.224,0.898-0.448,1.792-0.669,2.689
					c-0.227,0.894-0.448,1.787-0.673,2.684c-0.126,0.264-0.21,0.549-0.255,0.838c-0.044,0.316-0.19,0.611-0.416,0.84
					c-0.113-0.445-0.197-0.84-0.251-1.174c-0.067-0.353-0.282-0.658-0.589-0.838c-0.147-0.254-0.208-0.552-0.17-0.842
					c0-0.334-0.114-0.504-0.334-0.504c-0.223,0-0.335,0.17-0.335,0.504v0.842c-0.207-0.229-0.272-0.552-0.166-0.842
					c0.106-0.235,0.037-0.515-0.17-0.669c-0.447-0.11-0.644,0-0.587,0.335c0.055,0.334-0.031,0.558-0.254,0.667
					c-0.225-0.109-0.252-0.25-0.081-0.418c0.17-0.17,0.138-0.305-0.085-0.42c-0.201,0.196-0.373,0.42-0.504,0.669
					c-0.109,0.221-0.286,0.397-0.504,0.504c-0.112,0-0.17,0.168-0.17,0.507c0.337,1.008,0.109,1.566-0.67,1.678
					c-0.226,0.109-0.337,0.252-0.337,0.421c0,0.17-0.111,0.254-0.334,0.254c-0.337-0.115-0.504-0.507-0.504-1.177
					c-0.011-0.482,0.045-0.96,0.166-1.426c0.107-0.375,0.221-0.871,0.335-1.428c0-0.228,0.027-0.452,0.083-0.669
					c0.054-0.219,0.082-0.444,0.082-0.673c0-0.448-0.057-0.672-0.17-0.672c-0.241-0.037-0.469,0.132-0.506,0.375
					c-0.004,0.044-0.004,0.084,0,0.128c-0.119,0.611-0.203,1.228-0.251,1.849c-0.051,0.619-0.137,1.236-0.253,1.846
					c-0.112,0.106-0.17,0.196-0.17,0.25c0,0.059-0.112,0.199-0.334,0.42c-0.006-0.507,0.05-1.011,0.166-1.507
					c0.117-0.493,0.173-0.997,0.168-1.504c0.002-0.117,0.028-0.232,0.084-0.333c0.056-0.111-0.031-0.226-0.252-0.335
					c-0.244-0.037-0.47,0.128-0.505,0.372c-0.008,0.042-0.008,0.087,0,0.132c0.123,0.499,0,1.033-0.335,1.426
					c-0.336,0.375-0.671,0.753-1.01,1.089c-0.496,0.423-0.798,1.029-0.84,1.676c-0.021,0.647-0.192,1.28-0.499,1.851
					c-0.563,1.118-1.066,2.18-1.509,3.191c-0.463,1.062-0.746,2.196-0.838,3.354c-0.088,0.555,0.286,1.078,0.838,1.173
					c0.151,0.106,0.357,0.07,0.463-0.078c0.018-0.025,0.031-0.054,0.043-0.087c0-0.445,0.17-0.674,0.504-0.674
					c0.236-0.028,0.479,0.034,0.676,0.17c0.443,0.334,0.694,0.39,0.75,0.166c0.06-0.232,0.146-0.457,0.253-0.669
					c0.106-1.773,0.445-3.519,1.005-5.203c-0.031-0.272,0.099-0.538,0.337-0.669c0.227,1.18,0.11,2.404-0.337,3.522
					c-0.446,1.123-0.674,2.316-0.668,3.523c0.273-0.03,0.521-0.185,0.668-0.417c0.18-0.253,0.526-0.312,0.779-0.135
					c0.021,0.014,0.041,0.033,0.063,0.051c0.109,0.111,0.279-0.054,0.504-0.504c0.011-0.628,0.124-1.253,0.335-1.845h0.17v-0.17
					c-0.006-0.199,0.022-0.397,0.083-0.585c0.059-0.191,0.084-0.39,0.083-0.588c0.223-0.228,0.168-0.334-0.166-0.334
					c-0.16-0.025-0.312,0.084-0.335,0.243c-0.005,0.029-0.005,0.062,0,0.091c0.1,0.181,0.159,0.38,0.17,0.588
					c0.011,0.207,0.066,0.405,0.169,0.585v0.17h-0.169c-0.324-0.299-0.481-0.736-0.421-1.173c0.021-0.375,0.168-0.731,0.421-1.011
					c0.225-0.229,0.369-0.523,0.417-0.839c0.056-0.334,0.14-0.727,0.254-1.172c0.065-0.299,0.18-0.582,0.334-0.843
					c0.102,0.148,0.132,0.335,0.083,0.504c-0.056,0.103-0.083,0.221-0.083,0.333c-0.008,0.092,0.022,0.185,0.083,0.254
					c0.061,0.07,0.091,0.163,0.082,0.254c0.396,0.43,0.735,0.908,1.009,1.426c0.064,0.552-0.053,1.115-0.336,1.592v0.674
					c0.223,0.11,0.45,0,0.671-0.335c0.212-0.291,0.304-0.65,0.253-1.003c-0.056-0.342,0.114-0.681,0.423-0.843
					c0.002,0.309-0.025,0.619-0.084,0.924c-0.058,0.304-0.086,0.614-0.081,0.922c-0.229,0.669-0.563,0.949-1.01,0.838
					c-0.448-0.107-0.671,0.17-0.671,0.842c0,0.221,0.057,0.334,0.165,0.334c0.129,0.008,0.25,0.067,0.334,0.166
					c0.223,0,0.337-0.054,0.337-0.166v-0.502l0.334,0.168c0.784,0.669,1.346,0.504,1.679-0.504c0-0.228,0.027-0.452,0.085-0.672
					c0.056-0.224,0.026-0.464-0.085-0.669c-0.023-0.32-0.107-0.633-0.251-0.924c-0.167-0.393,0.027-0.701,0.589-0.922
					c-0.352-0.423-0.417-1.014-0.166-1.504c-0.061-0.574,0.027-1.151,0.252-1.681c0.462-0.364,1.014-0.592,1.596-0.669
					c0.478,0.75,0.602,1.669,0.334,2.52c-0.109,1.099-0.276,2.191-0.504,3.272c-0.226,1.059-0.448,2.151-0.668,3.272
					c-0.087,0.095-0.206,0.158-0.337,0.168c0.21,0.611,0.005,1.285-0.504,1.678c0.108-0.449,0.278-1.003,0.504-1.678
					c-0.464,0.129-0.836,0.471-1.007,0.924c-0.106,0.353-0.163,0.717-0.168,1.084c-0.113,0.56-0.226,1.062-0.334,1.507
					c-0.137,0.512-0.306,1.016-0.504,1.507c-0.229,0.335-0.311,0.531-0.255,0.588c0.295,0.167,0.603,0.31,0.924,0.419
					c-0.574,0.356-0.898,1.008-0.841,1.681c0.104,0.078,0.139,0.216,0.083,0.335c-0.055,0.11-0.194,0.11-0.422,0
					c-0.446,0-0.501-0.17-0.165-0.504c0.223-0.335,0.138-0.563-0.251-0.669c-0.394-0.111-0.531-0.283-0.42-0.507l-0.169-0.167
					c-0.294,0.366-0.714,0.604-1.175,0.674c-0.111,0-0.226-0.114-0.334-0.338c-0.109-0.221-0.283-0.225-0.506,0
					c-0.342,0.137-0.636,0.372-0.839,0.676c-0.113,0.221-0.228,0.445-0.336,0.669c-0.119,0.266-0.178,0.552-0.17,0.84
					c-0.223-0.335-0.251-0.619-0.083-0.84c0.162-0.183,0.195-0.451,0.083-0.669c-0.225-0.268-0.225-0.657,0-0.922
					c0.223-0.283,0.278-0.479,0.17-0.588c-0.335-0.114-0.531-0.283-0.587-0.504c-0.056-0.221-0.084-0.445-0.082-0.669
					c-0.223-0.448-0.448-0.672-0.671-0.672c-0.244-0.034-0.468,0.132-0.505,0.375c-0.006,0.044-0.008,0.084,0,0.129
					c-0.155,0.257-0.269,0.541-0.335,0.838c-0.228,0.56-0.506,0.838-0.84,0.838c-0.114,0-0.197,0.086-0.251,0.254
					c-0.058,0.168-0.145,0.14-0.254-0.081c-0.334-0.563-0.376-0.897-0.166-1.011c0.557-0.224,0.81-0.533,0.754-0.922
					c-0.063-0.471-0.088-0.949-0.083-1.428c-0.12,0.442-0.428,0.809-0.839,1.008c-0.316,0.1-0.604,0.271-0.842,0.504
					c-0.201-0.092-0.377-0.235-0.504-0.42c-0.129-0.18-0.302-0.328-0.506-0.418c-0.895-0.111-1.286-0.729-1.175-1.843
					c0.114-1.02,0.312-2.026,0.589-3.015c0.281-1.005,0.532-2.067,0.752-3.188c0.114-0.353,0.173-0.722,0.17-1.092
					c0.003-0.423,0.062-0.846,0.17-1.258c-0.003-1.177,0.053-2.353,0.166-3.523c0.11-1.121,0.277-2.294,0.504-3.526
					c0.446-1.9,0.811-3.771,1.092-5.623c0.281-1.846,0.646-3.72,1.093-5.617c0.446-2.24,0.979-4.504,1.598-6.804
					c0.615-2.294,1.259-4.559,1.927-6.794c0.334-1.342,0.696-2.711,1.088-4.112c0.39-1.401,0.754-2.773,1.092-4.11
					c0.334-1.232,0.67-2.406,1.009-3.527c0.342-1.148,0.565-2.333,0.671-3.523c0.001-0.235,0.061-0.462,0.168-0.672
					c0.021-0.177,0.078-0.35,0.166-0.504c0.561,0.229,0.811,0.143,0.753-0.25c-0.074-0.331,0.021-0.677,0.253-0.923
					c0.223-0.22,0.318-0.536,0.252-0.841c-0.056-0.331-0.083-0.669-0.083-1.008c-0.011-0.823,0.104-1.644,0.334-2.434
					c0.226-0.724,0.45-1.477,0.673-2.258c0.56-1.566,1.119-3.188,1.677-4.869c0.562-1.681,1.123-3.301,1.681-4.868
					c0.223-0.558,0.418-1.088,0.589-1.592c0.17-0.504,0.375-1.034,0.586-1.596c0.447-1.121,0.81-2.272,1.09-3.441
					c0.276-1.177,0.585-2.375,0.92-3.607c0.445-1.342,0.946-2.659,1.508-3.945c0.56-1.291,1.119-2.604,1.679-3.946
					c0.894-2.57,1.762-5.09,2.602-7.553c0.843-2.459,1.709-4.978,2.603-7.552c0.212-0.86,0.493-1.703,0.84-2.519
					c0.334-0.781,0.671-1.619,1.008-2.52c0.194-0.438,0.362-0.886,0.506-1.342c-0.62-0.099-1.258-0.043-1.85,0.17
					c-0.909,0.227-1.805,0.507-2.684,0.838c-0.938,0.356-1.837,0.809-2.684,1.345c-0.526,0.316-1.093,0.571-1.681,0.75
					c-0.562,0.166-1.129,0.379-1.68,0.588c-1.517,0.431-3.002,0.964-4.447,1.593c-1.4,0.617-2.825,1.261-4.276,1.93
					c-1.005,0.449-2.009,0.838-3.014,1.172c-1.001,0.335-1.959,0.784-2.855,1.347c-1.329,0.552-2.617,1.196-3.858,1.927
					c-1.23,0.728-2.463,1.426-3.693,2.096c-0.783,0.448-1.535,0.896-2.258,1.345c-0.754,0.46-1.576,0.798-2.435,1.008
					c-1.007,0.448-1.953,0.924-2.853,1.426c-0.901,0.507-1.789,1.037-2.684,1.593c-0.562,0.337-1.148,0.672-1.764,1.006
					c-0.617,0.339-1.264,0.619-1.932,0.839c-0.989,0.555-2.067,0.922-3.189,1.088c-1.118,0.17-2.235,0.364-3.358,0.588h-0.335
					c-0.796-0.224-1.638-0.224-2.434,0c-0.72,0.221-1.423,0.504-2.097,0.838c-1.604,0.891-3.543,0.953-5.202,0.17
					c-1.582-0.798-2.787-2.185-3.36-3.86c-0.847-2.039-0.456-4.376,1.01-6.028c0.781-1.386,2.268-2.225,3.859-2.177
					c0.491-0.129,0.949-0.356,1.345-0.672c0.675-0.335,1.346-0.644,2.015-0.924c0.647-0.267,1.323-0.466,2.015-0.583
					c1.481-0.42,2.939-0.924,4.364-1.507c2.325-1.402,4.883-2.369,7.553-2.854c1.278-0.353,2.534-0.773,3.765-1.258
					c1.232-0.485,2.49-0.905,3.766-1.258c1.937-0.569,3.843-1.243,5.709-2.014c1.903-0.784,3.804-1.512,5.704-2.182
					c1.343-0.558,2.687-1.062,4.028-1.504c1.342-0.443,2.74-0.892,4.194-1.345c0.422-0.213,0.878-0.356,1.344-0.42
					c0.519-0.073,1.025-0.213,1.508-0.415c0.669-0.224,1.343-0.474,2.016-0.753c0.636-0.266,1.252-0.574,1.843-0.922
					c1.491-0.755,3.034-1.397,4.617-1.932c1.506-0.502,3.045-1.032,4.614-1.595c1.232-0.555,2.435-1.059,3.608-1.504
					c1.18-0.445,2.377-0.949,3.61-1.507c0.423-0.084,0.754-0.417,0.84-0.839c0.219-0.438,0.416-0.886,0.59-1.345
					c0.162-0.438,0.302-0.886,0.416-1.339c0.412-1.059,0.979-2.048,1.681-2.938c0.67-0.838,1.341-1.706,2.013-2.603
					c0.444-0.56,1.234-0.703,1.847-0.334c0.4,0.208,0.822,0.378,1.258,0.502c0.413,0.137,0.75,0.442,0.92,0.843
					c0.223,0.224,0.377,0.334,0.506,0.334c0.972,0.176,1.752,0.894,2.017,1.846c0.221,0.563,0.671,0.729,1.343,0.504
					c2.123-0.779,4.193-1.563,6.209-2.35c2.017-0.786,4.143-1.569,6.378-2.349c2.35-0.784,4.673-1.652,6.966-2.604
					c2.294-0.947,4.618-1.871,6.969-2.765l3.691-1.345l3.692-1.342c1.566-0.449,3.103-0.813,4.614-1.093
					c1.511-0.283,3.106-0.532,4.784-0.753c-0.405,0.205-0.823,0.375-1.258,0.504c-0.38,0.113-0.754,0.224-1.092,0.334
					c-0.784,0.224-1.538,0.42-2.262,0.588c-0.722,0.168-1.476,0.364-2.258,0.588c-0.604,0.243-1.192,0.526-1.762,0.838
					c-0.57,0.313-1.159,0.596-1.765,0.839c-0.706,0.177-1.327,0.591-1.762,1.177c-0.426,0.599-0.901,1.161-1.426,1.681
					c-0.336,0.333-0.336,0.614,0,0.838c0.109,0.114,0.375,0.056,0.838-0.166c0.431-0.434,0.941-0.781,1.507-1.008
					c0.607-0.253,1.174-0.592,1.681-1.008c0.221,0.229,0.25,0.42,0.081,0.588c-0.165,0.151-0.198,0.397-0.081,0.588
					c0.235,0.111,0.516,0.038,0.67-0.168c0.157-0.21,0.437-0.28,0.672-0.169c-0.334,0.225-0.504,0.393-0.504,0.504
					c0,0.109,0.221,0.333,0.67,0.672c0.224,0.445,0.17,0.669-0.169,0.669c-0.434,0.216-0.831,0.499-1.173,0.841
					c-0.361,0.342-0.847,0.526-1.343,0.504c-0.109,0-0.21,0.067-0.249,0.168c-0.06,0.114-0.199,0.056-0.42-0.168
					c-0.114-0.224-0.253-0.28-0.423-0.166c-0.166,0.11-0.261,0.302-0.247,0.501c0,0.667-0.227,1.065-0.676,1.172
					c-0.464,0.122-0.912,0.291-1.338,0.507c0.537-0.404,1.044-0.853,1.504-1.342c-0.894,0.335-1.736,0.669-2.519,1.008
					c-0.803,0.342-1.652,0.566-2.521,0.672c0.461-0.35,0.883-0.743,1.263-1.177c0.39-0.445,0.878-0.79,1.43-1.008
					c0.347-0.124,0.555-0.477,0.504-0.841c0.61-0.059,1.195-0.291,1.681-0.669c-0.303-0.011-0.597,0.078-0.843,0.254
					c-0.253,0.183-0.536,0.323-0.838,0.415c-0.448,0.228-0.871,0.449-1.258,0.673c-0.39,0.221-0.813,0.448-1.258,0.672
					c-0.113,0.115-0.28,0-0.504-0.334h0.17c0.221-0.445,0.445-0.669,0.67-0.669c0.333,0.225,0.504,0.225,0.504,0
					c0.003-0.235,0.062-0.462,0.168-0.672c-0.434,0.043-0.86,0.157-1.261,0.334c-0.165,0.114-0.195,0.448-0.081,1.008h-0.17
					c-0.448,0.115-0.866,0.224-1.256,0.334c-0.435,0.129-0.857,0.299-1.258,0.504c-0.397,0.207-0.822,0.347-1.26,0.42
					c-0.394,0.059-0.813,0.14-1.258,0.253v-0.166c0.334-0.224,0.449-0.448,0.334-0.676c-0.142-0.184-0.405-0.221-0.591-0.078
					c-0.03,0.022-0.056,0.047-0.078,0.078c-0.585,0.135-1.04,0.592-1.177,1.177c0.195-0.21,0.468-0.331,0.754-0.335
					c0.261,0.005,0.519-0.054,0.754-0.166v0.166c-0.234,0.235-0.406,0.523-0.506,0.839c-0.111,0.334-0.448,0.448-1.01,0.334
					c-0.447-0.11-0.696,0.03-0.751,0.42c-0.054,0.359-0.084,0.723-0.084,1.092c0.331-0.111,0.666-0.196,1.008-0.254
					c0.364-0.067,0.708-0.207,1.01-0.42c0.223,0,0.337,0.059,0.337,0.17v0.507l-2.016,1.008c0.58,0.235,1.237,0.168,1.762-0.17
					c0.471-0.323,1.025-0.499,1.597-0.504c0,0.674-0.376,1.005-1.174,1.005c-0.701,0.014-1.339,0.401-1.681,1.011h-0.504
					c-0.228,0.224-0.336,0.375-0.336,0.502c0.223,0,0.336-0.051,0.336-0.166c0.109,0,0.278-0.109,0.504-0.333l0,0
					c0.579,0.205,1.225,0.078,1.681-0.334c0.559-0.226,1.035-0.42,1.426-0.588c0.377-0.167,0.867-0.38,1.43-0.59
					c0.225-0.224,0.334-0.224,0.334,0c0.111,0.114,0.056,0.285-0.168,0.504c-1.118,0.674-2.301,1.235-3.527,1.681
					c-1.232,0.448-2.463,0.952-3.693,1.507c-0.292,0.133-0.603,0.218-0.924,0.251c-0.373,0.059-0.643,0.378-0.75,0.922
					c-0.115,0.228-0.228,0.228-0.338,0c-0.107-0.224-0.224-0.28-0.335-0.166c-0.114,0.118-0.202,0.261-0.251,0.42
					c-0.058,0.168-0.197,0.194-0.417,0.081c-0.263-0.218-0.63-0.251-0.924-0.081c-0.273,0.161-0.526,0.359-0.754,0.583
					c-0.753,0.545-1.569,0.997-2.431,1.347c-0.838,0.334-1.65,0.729-2.435,1.177l-4.027,2.011c-1.348,0.676-2.752,1.239-4.194,1.681
					c-1.443,0.437-2.572,1.566-3.013,3.011c-0.226,0.669-0.417,1.345-0.587,2.015c-0.169,0.669-0.377,1.342-0.588,2.015
					c-0.311,1.482-0.731,2.943-1.258,4.366C310.522,11.82,309.981,13.192,309.411,14.644z M268.455,116.862
					c-0.027,0.283-0.145,0.549-0.335,0.754c-0.227,0.28-0.169,0.588,0.165,0.927c0.337-0.496,0.407-1.125,0.188-1.681H268.455z
					 M270.974,128.445c0.183-0.014,0.366,0.044,0.504,0.166c0.223,0.221,0.166,0.448-0.165,0.672
					c-0.199,0.18-0.347,0.412-0.422,0.669c-0.094,0.261-0.317,0.452-0.586,0.507v-1.507c0.071-0.319,0.37-0.541,0.697-0.507H270.974
					z M271.143,125.927c-0.104-0.353-0.131-0.725-0.083-1.089c0.248-0.412,0.562-0.779,0.924-1.092
					c0.027,0.434-0.063,0.868-0.253,1.257c-0.151,0.291-0.352,0.588-0.574,0.924H271.143z M271.478,112.667
					c0-0.448,0.166-0.673,0.506-0.673s0.377,0.221,0.165,0.673c-0.117,0.383-0.175,0.781-0.165,1.177
					c0,0.445-0.28,0.784-0.841,1.008c0.111-0.448,0.197-0.838,0.254-1.173c0.059-0.334,0.093-0.673,0.097-1.011H271.478z
					 M271.313,119.885c0.334-0.555,0.395-1.235,0.165-1.843c-0.327,0.56-0.383,1.236-0.15,1.84L271.313,119.885z M272.82,107.299
					c0.113,0.507,0.055,1.037-0.17,1.507c-0.218,0.426-0.388,0.879-0.506,1.342c-0.195-1.008,0.058-2.048,0.693-2.853
					L272.82,107.299z M272.315,120.389c0.23-0.39,0.402-0.813,0.505-1.258c-0.033-0.228-0.152-0.442-0.335-0.585
					c-0.113,0.221-0.226,0.471-0.336,0.753c-0.1,0.375-0.033,0.776,0.185,1.1L272.315,120.389z M273.49,127.607
					c0.202,0.297,0.262,0.665,0.165,1.011c-0.112,0.22-0.228,0.448-0.335,0.673c-0.004-0.254-0.03-0.504-0.083-0.754
					c-0.041-0.335,0.058-0.674,0.275-0.935L273.49,127.607z M273.824,126.768c0.109-0.224,0.309-0.278,0.588-0.166
					c0.28,0.115,0.418-0.059,0.418-0.504c0.104,0.383,0.159,0.776,0.171,1.173c0,0.335-0.283,0.614-0.84,0.843
					c-0.119-0.235-0.26-0.459-0.418-0.674c-0.162-0.197-0.132-0.488,0.066-0.65c0.011-0.007,0.022-0.018,0.035-0.026
					L273.824,126.768z M276.173,119.72c0.334-0.449,0.42-0.813,0.253-1.092c-0.16-0.216-0.192-0.504-0.083-0.754
					c-0.213,0.188-0.31,0.479-0.251,0.754c0.07,0.361,0.104,0.725,0.105,1.089L276.173,119.72z M277.013,120.054
					c0.337-0.113,0.377-0.374,0.172-0.838c-0.432,0.218-0.488,0.501-0.156,0.835L277.013,120.054z M278.188,111.329
					c0.212-0.192,0.307-0.479,0.254-0.755c-0.06-0.253-0.031-0.519,0.082-0.754h0.165v0.17c0.015,0.456-0.041,0.908-0.165,1.345
					L278.188,111.329z M279.029,98.069c0.185-0.14,0.223-0.404,0.083-0.588c-0.022-0.033-0.053-0.062-0.083-0.084
					c0.002,0.11-0.066,0.21-0.17,0.25c-0.113,0.062-0.113,0.143,0,0.254c-0.015,0.081,0.04,0.154,0.119,0.168
					c0.022,0.005,0.046,0.005,0.068-0.003L279.029,98.069z M279.535,102.587c0.007-0.084-0.053-0.157-0.135-0.165
					c-0.012,0-0.022,0-0.03,0c-0.452,0.335-0.563,0.669-0.337,1.008c0.457-0.221,0.631-0.496,0.52-0.835L279.535,102.587z
					 M281.212,80.434c0.205-0.397,0.347-0.82,0.418-1.258c0.048-0.437-0.041-0.876-0.253-1.257c-0.284,0.622-0.509,1.264-0.671,1.93
					c-0.225,0.843-0.448,1.681-0.669,2.519c-0.217,0.801-0.385,1.614-0.503,2.434c-0.122,0.493-0.122,1.011,0,1.504
					c0.099-0.084,0.159-0.205,0.169-0.334c0.008-0.129,0.069-0.251,0.168-0.335c0.321-0.846,0.572-1.717,0.754-2.603
					c0.169-0.832,0.38-1.695,0.605-2.593L281.212,80.434z M281.212,96.043c-0.324,0.538-0.604,1.099-0.84,1.681
					c-0.228,0.588-0.342,1.213-0.335,1.846c0.419-0.501,0.682-1.115,0.755-1.765c0.059-0.604,0.205-1.196,0.438-1.758
					L281.212,96.043z M283.731,96.043c-0.336,0.228-0.393,0.673-0.169,1.342c-0.211-0.21-0.434-0.409-0.671-0.588
					c-0.198-0.162-0.493-0.132-0.656,0.067c-0.005,0.006-0.01,0.011-0.013,0.017c-0.557,0.449-0.868,1.132-0.84,1.846
					c-0.113,0.228,0,0.42,0.334,0.588c0.258,0.148,0.544,0.232,0.841,0.254c0.073-0.824,0.43-1.597,1.005-2.185
					c-0.111-0.21-0.111-0.46,0-0.669c0.113-0.205,0.178-0.434,0.188-0.669L283.731,96.043z M282.225,93.524
					c0.31-0.56,0.56-1.151,0.752-1.762c0.046-0.479,0.02-0.96-0.083-1.426c-0.547,0.97-0.778,2.088-0.658,3.194L282.225,93.524z
					 M284.911,83.452c0.109-0.558,0.223-1.059,0.334-1.507l0.335-1.342l-0.335-0.168c0.008,0.521-0.106,1.037-0.334,1.504
					c-0.228,0.477-0.228,1.029,0,1.507c-0.448,0.224-0.67,0.504-0.67,0.838c0.017,0.345-0.041,0.691-0.172,1.011
					c-0.335,0.566-0.564,1.191-0.669,1.846c-0.116,0.681-0.284,1.356-0.506,2.011c-0.334,0.336-0.226,0.507,0.336,0.507
					c0.221-0.658,0.39-1.331,0.506-2.014c0.128-0.711,0.483-1.356,1.009-1.846c0.334-0.335,0.39-0.504,0.166-0.504
					c-0.447-0.339-0.587-0.644-0.42-0.922c0.183-0.288,0.331-0.593,0.445-0.913L284.911,83.452z M283.065,84.626
					c0.214-0.415,0.33-0.875,0.335-1.342c-0.293,0.383-0.407,0.871-0.321,1.345L283.065,84.626z M333.249-11.209
					c0.109,0.224,0.274,0.224,0.505,0v-0.335c-0.103,0.008-0.269,0.118-0.491,0.343L333.249-11.209z M345.333-18.935
					c0,0.114,0.168,0,0.504-0.334c0-0.221-0.056-0.335-0.166-0.335c-0.106,0-0.282,0.114-0.504,0.335
					c0.015,0.235,0.067,0.353,0.18,0.353L345.333-18.935z M346.506-19.943c-0.104-0.076-0.137-0.216-0.081-0.334
					c0.048-0.173,0.02-0.356-0.084-0.504c-0.336,0.224-0.417,0.375-0.25,0.504c0.154,0.099,0.298,0.216,0.43,0.345L346.506-19.943z
					 M348.857-19.439c0.224,0.115,0.443,0,0.672-0.334c-0.011-0.202,0.085-0.394,0.25-0.504c0.185-0.129,0.327-0.302,0.42-0.504
					c-0.405,0.14-0.795,0.309-1.177,0.504c-0.225,0.115-0.276,0.334-0.165,0.669V-19.439z"/>
				<path fill="#F3901B" d="M385.13,51.237c0.673,0,0.894,0.501,0.673,1.504c-0.195,0.813-0.479,1.6-0.843,2.35
					c-0.334,0.673-0.729,1.401-1.172,2.185c-0.898,1.569-1.851,3.136-2.854,4.699c-1.026,1.607-1.928,3.288-2.688,5.034
					c-0.226,0.457-0.509,0.879-0.84,1.263c-0.339,0.396-0.403,0.962-0.168,1.426c0.221,0.228,0.051,0.507-0.504,0.841
					c-2.13,3.137-4.199,6.045-6.214,8.726c-1.397,2.089-2.905,4.101-4.521,6.027c-0.314,0.533-0.684,1.037-1.091,1.504
					c-0.395,0.448-0.814,0.947-1.258,1.507c-0.24,0.246-0.438,0.529-0.585,0.838c-0.151,0.313-0.35,0.596-0.588,0.843
					c-0.625,1.481-1.412,2.886-2.351,4.194c-0.899,1.232-1.849,2.464-2.853,3.692c-0.15,0.162-0.321,0.305-0.509,0.423
					c-0.183,0.114-0.353,0.257-0.499,0.417l-3.012,2.015c-1.176,0.65-2.555,0.832-3.86,0.507h-0.335
					c-0.508,0.019-1.015-0.04-1.508-0.173c-0.249,0-0.504-0.029-0.75-0.081c-0.25-0.051-0.5-0.08-0.754-0.084
					c-0.228,0.114-0.375,0.143-0.423,0.084c-0.126-0.073-0.272-0.102-0.415-0.084h-0.165c-1.129-0.076-2.225-0.423-3.193-1.006
					c-0.911-0.574-1.709-1.313-2.348-2.182l-3.525-4.519c-0.562-0.673-1.175-0.673-1.846,0c-0.552,0.331-1.012,0.79-1.341,1.342
					c-0.549,0.879-1.226,1.673-2.013,2.35l-2.351,2.015c-0.235,0.346-0.518,0.655-0.839,0.923c-0.336,0.278-0.671,0.588-1.01,0.922
					c-0.529,0.758-1.218,1.387-2.017,1.846c-0.56,0.335-1.09,0.644-1.595,0.924c-0.553,0.323-1.036,0.749-1.428,1.256
					c-0.269,0.405-0.694,0.677-1.173,0.755c-0.501,0.059-1.005,0.084-1.506,0.08c-2.005,0.556-4.141,0.375-6.026-0.502
					c-0.469-0.244-0.849-0.622-1.092-1.092c-0.29-0.504-0.845-0.798-1.428-0.754c-1.012,0-2.002-0.291-2.854-0.839
					c-0.782-0.334-1.541-0.643-2.26-0.925c-0.735-0.283-1.44-0.647-2.097-1.089c-1.994-1.313-3.384-3.368-3.859-5.707
					c-0.107-0.526-0.137-1.062-0.082-1.593c0.059-0.529,0.086-1.062,0.082-1.595c-0.119-1.476,0.052-2.957,0.506-4.364
					c0.448-1.342,0.896-2.745,1.344-4.196c0.56-2.235,1.289-4.423,2.18-6.549c0.894-2.121,1.79-4.306,2.686-6.542
					c1.003-2.459,2.007-4.868,3.013-7.218c1.004-2.354,1.954-4.703,2.854-7.048c0.319-0.75,0.684-1.479,1.091-2.18
					c0.377-0.677,0.81-1.397,1.258-2.185c0.162-0.507,0.575-0.89,1.092-1.011c0.521-0.111,1.058-0.168,1.594-0.168
					c0.851,0.106,1.691,0.275,2.519,0.507c0.843,0.252,1.638,0.65,2.348,1.172c0.432,0.321,0.824,0.688,1.176,1.092
					c0.388,0.434,0.841,0.801,1.345,1.092c0,0.114,0.027,0.165,0.084,0.165c0.055,0,0.081,0.056,0.081,0.17
					c0.746,1.474,1.338,3.018,1.764,4.614c0.38,1.614,0.17,3.314-0.587,4.788c-0.438,0.975-0.801,1.981-1.089,3.012
					c-0.281,1.003-0.588,2.008-0.922,3.011c-0.786,2.129-1.539,4.196-2.26,6.21c-0.721,2.011-1.474,4.085-2.261,6.214
					c-0.555,1.218-0.897,2.523-1.004,3.857c-0.109,1.342-0.167,2.688-0.168,4.03v0.669c0,0.224,0.168,0.375,0.504,0.504
					c0.498,0.022,0.982-0.159,1.344-0.504c0.894-1.228,1.704-2.431,2.433-3.607c0.729-1.172,1.537-2.379,2.431-3.611
					c1.791-2.574,3.467-5.203,5.037-7.887c1.568-2.688,3.134-5.322,4.698-7.91c1.343-2.235,2.741-4.39,4.198-6.46
					c1.456-2.07,3.022-4.112,4.7-6.126c1.084-1.185,2.039-2.474,2.856-3.857c0.628-0.864,1.466-1.555,2.43-2.015
					c0.952-0.448,1.876-0.953,2.77-1.507c0.577-0.207,1.22-0.075,1.676,0.334c0.449,0.334,0.894,0.644,1.347,0.922
					c0.508,0.299,1.091,0.442,1.68,0.42c0.641,0.056,1.21,0.438,1.504,1.008c0.56,0.782,1.089,1.566,1.597,2.35
					c0.504,0.783,1.028,1.569,1.596,2.349c0.556,0.905,0.68,2.008,0.334,3.011c-0.294,1.255-0.805,2.446-1.507,3.527
					c-0.743,0.828-1.316,1.798-1.681,2.854c-0.331,1-0.779,1.959-1.339,2.853c-0.896,1.905-1.681,3.778-2.35,5.622
					c-0.668,1.846-1.396,3.717-2.184,5.622c-0.563,1.344-1.151,2.659-1.762,3.946c-0.625,1.294-1.324,2.552-2.101,3.765
					c-0.426,0.614-0.661,1.345-0.668,2.096c0.004,0.758,0.06,1.512,0.166,2.261c0,0.335,0.109,0.504,0.334,0.504
					c0.56-0.673,1.147-1.316,1.765-1.93c0.644-0.65,1.232-1.353,1.762-2.099c1.003-1.229,2.066-2.405,3.188-3.523
					c1.121-1.121,2.298-2.239,3.527-3.356c1.114-1.114,2.205-2.235,3.275-3.358c1.066-1.121,2.1-2.297,3.1-3.522
					c1.791-2.011,3.611-3.997,5.457-5.961c1.847-1.967,3.667-3.953,5.457-5.956c1.228-1.232,2.376-2.434,3.44-3.611
					c1.118-1.247,2.156-2.563,3.104-3.943c0.262-0.382,0.54-0.746,0.842-1.091c0.295-0.354,0.633-0.663,1.009-0.924
					C384.193,51.481,384.649,51.268,385.13,51.237z"/>
			</g>
			<g transform="translate(111.746 13.209)">
				<path fill="#252E5E" d="M369.553,29.259v62.816h-19.635V29.259h-17.345V11.687h54.324v17.572H369.553z"/>
				<path fill="#252E5E" d="M408.025,53.365c3.972-0.029,7.91,0.714,11.598,2.185v-2.185c0-3.673-2.986-6.541-9.188-6.541
					c-5.272,0.1-10.457,1.394-15.157,3.792l-7.122-12.863c7.265-4.883,15.825-7.479,24.577-7.465
					c20.787,0,26.07,10.683,26.07,24.475v37.305h-17.112l-1.034-3.331c-3.695,3.418-8.642,5.166-13.667,4.824
					c-11.826,0-22.391-7.123-22.391-20.213C384.593,61.294,393.784,53.365,408.025,53.365z M411.931,78.862
					c4.594,0,8.039-2.18,8.039-6.203c0-4.14-3.557-6.432-8.157-6.432c-4.596,0-8.037,2.53-8.037,6.432
					C403.793,76.683,407.448,78.862,411.931,78.862z"/>
				<path fill="#252E5E" d="M442.366,9.043h19.175v83.046h-19.175V9.043z"/>
				<path fill="#252E5E" d="M482.441,66.92c1.012,6.137,6.553,10.475,12.752,9.99c4.998,0.008,9.701-2.382,12.631-6.435
					l12.636,9.766c-5.546,8.697-15.305,13.776-25.608,13.323c-19.862,0-32.038-13.665-32.038-31.468
					c0-17.698,11.94-31.814,29.631-31.814c19.179,0,29.63,12.292,29.63,32.848c0,1.127,0,2.412-0.115,3.787L482.441,66.92z
					 M483.02,54.746h19.524c-0.154-5.104-4.415-9.121-9.52-8.969c-0.081,0.003-0.165,0.008-0.246,0.011
					c-5.133-0.126-9.446,3.835-9.759,8.961V54.746z"/>
				<path fill="#252E5E" d="M558.356,56.124c0.519-4.21-2.479-8.042-6.688-8.561c-0.404-0.048-0.81-0.067-1.218-0.051
					c-4.408-0.177-8.122,3.25-8.302,7.659c-0.011,0.316-0.008,0.636,0.018,0.953v35.943H522.99V31.781h18.719v6.199
					c3.456-4.927,9.143-7.813,15.16-7.695c18.827,0,20.673,16.08,20.673,28.369v33.414h-19.18L558.356,56.124z"/>
				<path fill="#252E5E" d="M602.112,31.781h10.219v15.51h-10.219v22.166c0,5.272,3.563,6.544,7.465,6.544
					c1.029,0,1.953,0,3.214-0.115v16.426c-2.412,0.521-4.88,0.754-7.351,0.687c-14.238,0-22.508-6.544-22.508-24.475V47.292h-5.854
					V31.789h5.854V19.052h19.18V31.781z"/>
				<path fill="#252E5E" d="M644.605,30.285c19.411,0,33.075,13.322,33.075,31.582c0,18.144-14.01,31.697-33.075,31.697
					c-19.177,0-32.729-13.323-32.729-31.468c-0.166-17.412,13.811-31.663,31.223-31.833
					C643.602,30.26,644.101,30.266,644.605,30.285z M644.605,76.683c7.71-0.022,13.942-6.292,13.921-14.003
					c-0.004-0.271-0.01-0.541-0.025-0.808c0.489-7.608-5.28-14.168-12.889-14.658c-0.334-0.022-0.673-0.032-1.007-0.028
					c-7.905,0-13.555,6.085-13.555,14.928c-0.588,7.435,4.961,13.939,12.393,14.528C643.829,76.671,644.219,76.686,644.605,76.683z"
					/>
			</g>
			<g transform="translate(0 13.245)">
				<path fill="#252E5E" d="M23.561,52.091C23.365,28.812,42.074,9.783,65.353,9.587c23.277-0.194,42.307,18.519,42.502,41.794
					c0.194,23.279-18.517,42.305-41.794,42.503c-0.119,0-0.238,0-0.359,0c-22.282,0.984-41.144-16.28-42.128-38.559
					C23.525,54.245,23.521,53.169,23.561,52.091z M44.001,52.091c0,13.553,8.958,23.427,21.707,23.427
					c12.75,0,21.707-9.877,21.707-23.427c0-13.211-8.843-23.198-21.707-23.198C52.845,28.893,44.001,38.883,44.001,52.091z"/>
				<path fill="#252E5E" d="M131.974,32.11h9.415v15.502h-9.415v44.787h-19.177V47.616h-6.322V32.114h6.318v-1.722
					c0-15.848,11.254-21.246,23.888-21.246c2.296,0,3.674,0.118,5.857,0.228v16.08c-1.024-0.161-2.062-0.239-3.099-0.23
					c-4.94,0-7.467,1.952-7.467,5.625V32.11z"/>
				<path fill="#252E5E" d="M176.88,50.141c-1.026-0.154-2.063-0.23-3.101-0.227c-9.305,0-12.402,6.776-12.402,15.847v26.645
					h-19.179V32.114h18.719v8.041c2.956-6.07,9.222-9.81,15.965-9.53L176.88,50.141z"/>
				<path fill="#252E5E" d="M192.15,67.251c1.008,6.137,6.549,10.479,12.752,9.995c4.999,0.011,9.699-2.383,12.632-6.431
					l12.632,9.762c-5.546,8.692-15.304,13.771-25.605,13.318c-19.865,0-32.039-13.663-32.039-31.467
					c0-17.695,11.942-31.806,29.628-31.806c19.182,0,29.629,12.287,29.629,32.843c0,1.148,0,2.412-0.111,3.787H192.15z
					 M192.726,55.08h19.523c-0.149-5.107-4.412-9.122-9.518-8.967c-0.081,0-0.164,0.003-0.245,0.006
					c-5.132-0.124-9.446,3.835-9.758,8.961H192.726z"/>
				<path fill="#252E5E" d="M274.955,72.764l5.051,15.734c-5.22,3.533-11.389,5.416-17.694,5.393
					c-19.179,0-32.729-13.09-32.729-31.579c-0.288-17.234,13.448-31.439,30.681-31.725c0.646-0.011,1.289,0,1.933,0.029
					c6.405-0.092,12.674,1.835,17.917,5.512l-5.167,16.189c-3.375-2.844-7.635-4.426-12.049-4.478
					c-7.408-0.4-13.739,5.28-14.14,12.69c-0.03,0.555-0.025,1.11,0.013,1.665c-0.436,7.745,5.487,14.378,13.233,14.811
					c0.526,0.03,1.053,0.03,1.579,0C267.74,76.896,271.742,75.403,274.955,72.764z"/>
				<path fill="#252E5E" d="M297.584,67.251c1.008,6.137,6.547,10.479,12.746,9.995c4.999,0.011,9.699-2.383,12.633-6.431
					l12.633,9.762c-5.545,8.696-15.304,13.771-25.605,13.318c-19.865,0-32.043-13.663-32.043-31.467
					c0-17.695,11.944-31.806,29.631-31.806c19.179,0,29.628,12.287,29.628,32.843c0,1.148,0,2.412-0.112,3.787H297.584z
					 M298.161,55.08h19.521c-0.151-5.107-4.412-9.122-9.52-8.967c-0.079,0-0.162,0.003-0.243,0.006
					c-5.136-0.129-9.45,3.832-9.763,8.961H298.161z"/>
			</g>
		</g>
	</g>
</g>
</svg>
